<?xml version="1.0" encoding="iso-8859-1"?>
<!-- Uploaded to: SVG Repo, www.svgrepo.com, Generator: SVG Repo Mixer Tools -->
<svg height="800px" width="800px" version="1.1" id="Layer_1" xmlns="http://www.w3.org/2000/svg" xmlns:xlink="http://www.w3.org/1999/xlink" 
	 viewBox="0 0 512 512" xml:space="preserve">
<circle style="fill:#386895;" cx="256" cy="256" r="256"/>
<path style="fill:#273B7A;" d="M507.275,305.114L336.162,134.001l-118.41-19.109l-72.154,72.152v113.895l-44.391,29.548
	l180.255,180.255C394.518,499.578,485.945,414.868,507.275,305.114z"/>
<path style="fill:#FFEDB5;" d="M379.259,312.889h-18.963v-85.333c0-57.508-46.789-104.296-104.296-104.296
	s-104.296,46.789-104.296,104.296v85.333h-18.963v-85.333c0-67.965,55.294-123.259,123.259-123.259s123.259,55.294,123.259,123.259
	V312.889z"/>
<path style="fill:#EAA22F;" d="M165.064,341.333h-22.842V256h22.842c5.951,0,10.774,4.823,10.774,10.774v63.785
	C175.838,336.51,171.015,341.333,165.064,341.333z"/>
<path style="fill:#E09112;" d="M142.222,298.524v42.81h22.842c5.951,0,10.774-4.823,10.774-10.774v-32.035L142.222,298.524
	L142.222,298.524z"/>
<path style="fill:#D35933;" d="M147.394,341.333h-20.113c-20.311,0-36.776-16.465-36.776-36.776v-11.781
	c0-20.311,16.465-36.776,36.776-36.776h20.113V341.333z"/>
<path style="fill:#B54324;" d="M90.505,298.524v6.034c0,20.311,16.465,36.776,36.776,36.776h20.113v-42.81L90.505,298.524
	L90.505,298.524z"/>
<path style="fill:#EAA22F;" d="M346.936,256h22.842v85.333h-22.842c-5.951,0-10.774-4.823-10.774-10.774v-63.785
	C336.162,260.823,340.985,256,346.936,256z"/>
<path style="fill:#E09112;" d="M336.162,298.524v32.035c0,5.951,4.823,10.774,10.774,10.774h22.842v-42.81L336.162,298.524
	L336.162,298.524z"/>
<path style="fill:#D35933;" d="M364.606,256h20.113c20.311,0,36.776,16.465,36.776,36.776v11.781
	c0,20.311-16.465,36.776-36.776,36.776h-20.113V256z"/>
<path style="fill:#B54324;" d="M364.606,298.524v42.81h20.113c20.311,0,36.776-16.465,36.776-36.776v-6.034L364.606,298.524
	L364.606,298.524z"/>
</svg>