<?xml version="1.0" encoding="iso-8859-1"?>
<!-- Uploaded to: SVG Repo, www.svgrepo.com, Generator: SVG Repo Mixer Tools -->
<svg version="1.1" id="Layer_1" xmlns="http://www.w3.org/2000/svg" xmlns:xlink="http://www.w3.org/1999/xlink" 
	 viewBox="0 0 511.999 511.999" xml:space="preserve">
<g>
	<polygon style="fill:#F7B239;" points="352.97,9.034 385.304,73.691 349.717,73.691 320.647,73.691 	"/>
	<polygon style="fill:#F7B239;" points="159.024,9.034 191.346,73.691 164.192,73.691 126.702,73.691 	"/>
</g>
<path style="fill:#CCCCCC;" d="M288.325,126.192h-64.657c0-34.021,11.384-67.066,32.334-93.883
	C276.941,59.126,288.325,92.171,288.325,126.192z"/>
<g>
	<path style="fill:#F7B239;" d="M400.821,223.677V458.1c0,24.781-20.094,44.863-44.863,44.863H156.049
		c-24.781,0-44.863-20.082-44.863-44.863V223.677H400.821z"/>
	<polygon style="fill:#F7B239;" points="400.821,182.295 400.821,223.677 111.185,223.677 111.185,182.295 126.702,182.295 
		164.192,182.295 191.346,182.295 223.669,182.295 288.325,182.295 320.647,182.295 349.717,182.295 385.304,182.295 	"/>
</g>
<path style="fill:#E09B2D;" d="M193.105,458.1V223.677v-41.382h-1.759h-27.154h-37.49h-15.517v41.382V458.1
	c0,24.781,20.082,44.863,44.863,44.863h81.92C213.188,502.963,193.105,482.881,193.105,458.1z"/>
<g>
	<rect x="349.713" y="73.692" style="fill:#9AD14B;" width="35.587" height="108.604"/>
	<rect x="320.644" y="73.692" style="fill:#9AD14B;" width="29.07" height="108.604"/>
</g>
<rect x="223.665" y="126.193" style="fill:#2BA5F7;" width="64.657" height="56.103"/>
<g>
	<rect x="164.189" y="73.692" style="fill:#F95428;" width="27.154" height="108.604"/>
	<rect x="126.698" y="73.692" style="fill:#F95428;" width="37.49" height="108.604"/>
</g>
<g>
	<path style="fill:#FFFFFF;" d="M367.199,470.623c-4.991,0-9.035-4.045-9.035-9.035V293.496c0-4.99,4.044-9.035,9.035-9.035
		c4.991,0,9.035,4.045,9.035,9.035v168.091C376.234,466.578,372.19,470.623,367.199,470.623z"/>
	<circle style="fill:#FFFFFF;" cx="367.194" cy="259.879" r="9.035"/>
</g>
<path style="fill:#333333;" d="M400.816,173.263h-6.48V73.686c0-1.403-0.326-2.786-0.954-4.041L361.056,4.995
	C359.526,1.934,356.397,0,352.975,0c-3.423,0-6.551,1.934-8.081,4.995l-32.325,64.651c-0.628,1.255-0.954,2.637-0.954,4.041v99.577
	h-14.255v-47.07c0-35.865-12.16-71.181-34.24-99.445c-1.712-2.191-4.339-3.473-7.12-3.473c-2.782,0-5.408,1.281-7.121,3.473
	c-22.08,28.262-34.24,63.58-34.24,99.445v47.071h-14.255V73.686c0-1.403-0.326-2.786-0.954-4.041L167.105,4.995
	C165.575,1.934,162.447,0,159.024,0c-3.423,0-6.551,1.934-8.081,4.995l-32.326,64.651c-0.628,1.255-0.954,2.637-0.954,4.041v99.577
	h-6.48c-4.99,0-9.035,4.045-9.035,9.035v275.804c0,29.719,24.177,53.896,53.896,53.896h199.911
	c29.719,0,53.896-24.177,53.896-53.896V182.299C409.851,177.309,405.807,173.263,400.816,173.263z M391.781,191.334v23.305H120.218
	v-23.305H391.781z M358.749,173.263V82.721h17.516v90.542L358.749,173.263L358.749,173.263z M352.975,29.239l17.707,35.412h-35.412
	L352.975,29.239z M329.685,82.721h10.993v90.542h-10.993V82.721z M255.999,47.849c13.447,20.673,21.406,44.68,22.982,69.309h-45.964
	C234.593,92.527,242.554,68.521,255.999,47.849z M232.71,135.228h46.58v38.036h-46.58V135.228z M173.225,173.263V82.721h9.088
	v90.542L173.225,173.263L173.225,173.263z M159.024,29.239l17.706,35.411h-35.412L159.024,29.239z M135.734,82.721h19.421v90.542
	h-19.421V82.721z M355.955,493.929H156.044c-19.755,0-35.826-16.071-35.826-35.826V232.709h271.562v225.393
	C391.781,477.859,375.709,493.929,355.955,493.929z"/>
</svg>