<?xml version="1.0" encoding="iso-8859-1"?>
<!-- Uploaded to: SVG Repo, www.svgrepo.com, Generator: SVG Repo Mixer Tools -->
<svg version="1.1" id="Layer_1" xmlns="http://www.w3.org/2000/svg" xmlns:xlink="http://www.w3.org/1999/xlink" 
	 viewBox="0 0 451.296 451.296" xml:space="preserve">
<circle style="fill:#EA8953;" cx="225.638" cy="225.648" r="225.638"/>
<path style="opacity:0.1;enable-background:new    ;" d="M451.296,225.648c0-11.404-0.865-22.605-2.497-33.555L354.426,97.72
	l-0.188-0.236l-0.329-0.329c-0.564-0.517-1.269-0.799-2.022-0.799H99.386c-1.645,0-3.009,1.363-3.009,3.056v23.459
	c0,0.846,0.329,1.551,0.846,2.116l12.27,12.27v129.048H99.386c-1.645,0-3.009,1.363-3.009,3.056v3.949
	c0,0.846,0.329,1.551,0.846,2.116l0.047,0.047l171.642,171.642C372.83,426.924,451.296,335.47,451.296,225.648z"/>
<path style="fill:#64798A;" d="M229.164,311.411v-40.074h-7.052v40.074c-10.416,1.7-18.412,10.689-18.412,21.579
	c0,12.097,9.841,21.941,21.938,21.941c12.097,0,21.938-9.843,21.938-21.941C247.577,322.101,239.581,313.111,229.164,311.411z
	 M225.638,347.879c-8.209,0-14.886-6.68-14.886-14.889c0-8.209,6.678-14.884,14.886-14.884s14.886,6.675,14.886,14.884
	C240.525,341.199,233.847,347.879,225.638,347.879z"/>
<g>
	<path style="fill:#3A556A;" d="M351.871,96.365H99.406c-1.685,0-3.051,1.365-3.051,3.05v23.477c0,1.684,1.366,3.05,3.051,3.05
		h252.465c1.685,0,3.051-1.365,3.051-3.05V99.415C354.921,97.73,353.556,96.365,351.871,96.365z"/>
	<path style="fill:#3A556A;" d="M351.871,266.295H99.406c-1.685,0-3.051,1.365-3.051,3.05v3.987c0,1.685,1.366,3.05,3.051,3.05
		h252.465c1.685,0,3.051-1.365,3.051-3.05v-3.987C354.921,267.66,353.556,266.295,351.871,266.295z"/>
</g>
<rect x="109.491" y="125.941" style="fill:#EBF0F3;" width="232.294" height="140.355"/>
<circle style="fill:#E56353;" cx="225.638" cy="196.106" r="45.281"/>
<path style="fill:#FFFFFF;" d="M242.511,194.186l-25.364-21.319c-1.642-1.38-4.148-0.213-4.148,1.933v42.638
	c0,2.145,2.506,3.312,4.148,1.932l25.364-21.319C243.711,197.042,243.711,195.195,242.511,194.186z"/>
</svg>